<?xml version="1.0" encoding="UTF-8" standalone="no"?>
<svg
   width="32px"
   height="32px"
   stroke-width="3"
   viewBox="0 0 24 24"
   fill="none"
   color="#000000"
   version="1.1"
   id="svg4"
   sodipodi:docname="dashboard.svg"
   inkscape:version="1.3.2 (091e20ef0f, 2023-11-25, custom)"
   inkscape:export-filename="dashboard.png"
   inkscape:export-xdpi="192"
   inkscape:export-ydpi="192"
   xmlns:inkscape="http://www.inkscape.org/namespaces/inkscape"
   xmlns:sodipodi="http://sodipodi.sourceforge.net/DTD/sodipodi-0.dtd"
   xmlns="http://www.w3.org/2000/svg"
   xmlns:svg="http://www.w3.org/2000/svg">
  <defs
     id="defs4" />
  <sodipodi:namedview
     id="namedview4"
     pagecolor="#505050"
     bordercolor="#eeeeee"
     borderopacity="1"
     inkscape:showpageshadow="0"
     inkscape:pageopacity="0"
     inkscape:pagecheckerboard="0"
     inkscape:deskcolor="#505050"
     inkscape:zoom="24.90625"
     inkscape:cx="15.979925"
     inkscape:cy="15.959849"
     inkscape:window-width="1920"
     inkscape:window-height="1001"
     inkscape:window-x="0"
     inkscape:window-y="0"
     inkscape:window-maximized="1"
     inkscape:current-layer="svg4" />
  <path
     d="M14 20.4V14.6C14 14.2686 14.2686 14 14.6 14H20.4C20.7314 14 21 14.2686 21 14.6V20.4C21 20.7314 20.7314 21 20.4 21H14.6C14.2686 21 14 20.7314 14 20.4Z"
     stroke="#000000"
     stroke-width="3"
     id="path1"
     style="stroke:#ffffff;stroke-opacity:1;stroke-width:1.875;stroke-dasharray:none" />
  <path
     d="M3 20.4V14.6C3 14.2686 3.26863 14 3.6 14H9.4C9.73137 14 10 14.2686 10 14.6V20.4C10 20.7314 9.73137 21 9.4 21H3.6C3.26863 21 3 20.7314 3 20.4Z"
     stroke="#000000"
     stroke-width="3"
     id="path2"
     style="stroke:#ffffff;stroke-opacity:1;stroke-width:1.875;stroke-dasharray:none" />
  <path
     d="M14 9.4V3.6C14 3.26863 14.2686 3 14.6 3H20.4C20.7314 3 21 3.26863 21 3.6V9.4C21 9.73137 20.7314 10 20.4 10H14.6C14.2686 10 14 9.73137 14 9.4Z"
     stroke="#000000"
     stroke-width="3"
     id="path3"
     style="stroke:#ffffff;stroke-opacity:1;stroke-width:1.875;stroke-dasharray:none" />
  <path
     d="M3 9.4V3.6C3 3.26863 3.26863 3 3.6 3H9.4C9.73137 3 10 3.26863 10 3.6V9.4C10 9.73137 9.73137 10 9.4 10H3.6C3.26863 10 3 9.73137 3 9.4Z"
     stroke="#000000"
     stroke-width="3"
     id="path4"
     style="stroke:#ffffff;stroke-opacity:1;stroke-width:1.875;stroke-dasharray:none" />
</svg>
